<svg width="24" height="27" viewBox="0 0 24 27" fill="none" xmlns="http://www.w3.org/2000/svg">
<path d="M2.00195 13.0876C2.00312 18.452 5.58036 23.0196 10.439 23.8602V16.239H7.90195V13.0876H10.442V10.6887C10.3284 9.55191 10.6845 8.41899 11.4136 7.59716C12.1427 6.77533 13.1693 6.34977 14.215 6.4359C14.9655 6.44912 15.7141 6.52201 16.455 6.654V9.33541H15.191C14.7558 9.27326 14.3183 9.42998 14.0017 9.76142C13.6851 10.0929 13.5237 10.5631 13.563 11.0397V13.0876H16.334L15.891 16.2401H13.563V23.8602C18.8174 22.9547 22.502 17.7218 21.9475 11.9526C21.3929 6.18331 16.7932 1.89736 11.4808 2.19968C6.16831 2.50201 2.0028 7.28679 2.00195 13.0876Z" fill="#E6E6E6"/>
</svg>
