<svg width="24" height="27" viewBox="0 0 24 27" fill="none" xmlns="http://www.w3.org/2000/svg">
<path d="M12.002 22.9442C9.54195 22.9442 9.25195 22.93 8.29195 22.8842C7.54332 22.8574 6.80439 22.6914 6.10695 22.3935C4.90026 21.8814 3.94609 20.8406 3.47695 19.5245C3.21426 18.7612 3.07257 17.9548 3.05795 17.1397C3.00195 16.0951 3.00195 15.7527 3.00195 13.0909C3.00195 10.4007 3.01495 10.0867 3.05795 9.04529C3.07289 8.2313 3.21457 7.42598 3.47695 6.66374C3.94558 5.34596 4.9013 4.3042 6.10995 3.79367C6.8086 3.50602 7.5473 3.35111 8.29395 3.33568C9.24895 3.27679 9.56295 3.27679 12.002 3.27679C14.482 3.27679 14.767 3.29097 15.712 3.33568C16.4605 3.35124 17.2012 3.50613 17.902 3.79367C19.1103 4.30477 20.0658 5.34634 20.535 6.66374C20.8021 7.43709 20.9445 8.25499 20.956 9.08127C21.012 10.1259 21.012 10.4672 21.012 13.1279C21.012 15.7886 20.998 16.1376 20.956 17.1702C20.9411 17.9861 20.799 18.7933 20.536 19.5572C20.0656 20.8742 19.11 21.9155 17.902 22.4273C17.2022 22.7132 16.4631 22.8678 15.716 22.8842C14.761 22.9442 14.448 22.9442 12.002 22.9442ZM11.968 5.00298C9.52195 5.00298 9.26795 5.01607 8.31295 5.06296C7.74294 5.0712 7.17843 5.1859 6.64395 5.40209C5.85471 5.73141 5.23018 6.40966 4.92495 7.26894C4.72517 7.85811 4.61996 8.48041 4.61395 9.10853C4.56095 10.1652 4.56095 10.4422 4.56095 13.0909C4.56095 15.708 4.56995 16.0253 4.61395 17.0754C4.62291 17.6972 4.72805 18.3128 4.92495 18.8964C5.23063 19.7552 5.85505 20.4329 6.64395 20.7622C7.17807 20.9799 7.7428 21.0946 8.31295 21.1013C9.28095 21.1624 9.53595 21.1624 11.968 21.1624C14.421 21.1624 14.675 21.1493 15.622 21.1013C16.1924 21.0938 16.7573 20.9791 17.292 20.7622C18.0764 20.43 18.6969 19.7539 19.002 18.8986C19.2014 18.309 19.3065 17.6864 19.313 17.0579H19.324C19.367 16.0155 19.367 15.7374 19.367 13.0734C19.367 10.4095 19.356 10.1292 19.313 9.08781C19.304 8.46676 19.1988 7.85181 19.002 7.26894C18.6976 6.41248 18.077 5.735 17.292 5.40209C16.7574 5.18481 16.1924 5.07008 15.622 5.06296C14.655 5.00298 14.402 5.00298 11.968 5.00298ZM12.002 18.1277C10.1319 18.129 8.44537 16.9017 7.72882 15.0182C7.01226 13.1347 7.40686 10.9659 8.72858 9.52342C10.0503 8.08089 12.0388 7.64872 13.7667 8.42846C15.4946 9.2082 16.6215 11.0463 16.622 13.0854C16.6192 15.8673 14.553 18.1222 12.002 18.1277ZM12.002 9.81188C10.3451 9.81188 9.00195 11.2766 9.00195 13.0832C9.00195 14.89 10.3451 16.3546 12.002 16.3546C13.6588 16.3546 15.002 14.89 15.002 13.0832C14.9981 11.2782 13.6572 9.81607 12.002 9.81188ZM16.802 9.03439C16.2074 9.03198 15.7269 8.50507 15.728 7.8567C15.7291 7.20834 16.2114 6.68338 16.806 6.68338C17.4005 6.68338 17.8828 7.20833 17.884 7.85669C17.8842 8.16951 17.7702 8.46956 17.5672 8.69054C17.3642 8.91153 17.0888 9.03526 16.802 9.03439Z" fill="#E6E6E6"/>
</svg>
