<svg viewBox="0 0 24 27" fill="none" xmlns="http://www.w3.org/2000/svg">
<path d="M19.995 7.29294C20.8914 6.70856 21.5622 5.78838 21.882 4.70421C21.0397 5.24922 20.118 5.63314 19.157 5.83937C17.8246 4.30241 15.7135 3.92837 14.0034 4.92628C12.2933 5.92418 11.4075 8.04698 11.841 10.1085C8.39061 9.91959 5.17598 8.14231 2.99702 5.2189C1.85986 7.35774 2.44097 10.0919 4.32502 11.4672C3.64373 11.4433 2.97754 11.2421 2.38202 10.8805C2.38202 10.9002 2.38202 10.9198 2.38202 10.9394C2.38241 13.1673 3.82239 15.0865 5.82502 15.528C5.19308 15.7155 4.53022 15.7431 3.88702 15.6087C4.45022 17.5141 6.06057 18.8194 7.89602 18.8583C6.37585 20.1593 4.49849 20.8649 2.56602 20.8615C2.22349 20.862 1.88123 20.8405 1.54102 20.7971C3.50341 22.1722 5.78739 22.902 8.12002 22.8995C11.3653 22.9238 14.484 21.5287 16.7787 19.0262C19.0734 16.5237 20.3526 13.1227 20.33 9.58398C20.33 9.38116 20.3257 9.17942 20.317 8.97878C21.1575 8.31644 21.8828 7.49593 22.459 6.5558C21.676 6.93425 20.8455 7.18272 19.995 7.29294Z" fill="#E6E6E6"/>
</svg>
